<svg width="923" height="1149" viewBox="0 0 923 1149" fill="none" xmlns="http://www.w3.org/2000/svg">
<g filter="url(#filter0_b_489_2957)">
<path d="M706.487 39.1024L706.468 39.1174C701.113 43.248 696.942 46.2242 693.635 48.2094C690.203 50.2694 688.321 50.8739 687.432 50.9739C687.412 50.9762 687.394 50.9784 687.379 50.9807C686.935 50.4515 686.167 49.0952 685.234 46.0249C682.646 37.5076 677.685 31.3881 668.732 27.0148C660.379 22.9344 648.511 20.3577 632.024 18.0104L632.011 18.0084L631.997 18.0065C607.803 14.6663 591.102 17.7025 534.04 33.837L534.004 33.8473L533.968 33.8579C496.778 44.8402 449.506 61.6456 429.457 71.2606L429.429 71.2739L429.401 71.2876L397.974 86.7289L386.746 78.2032L386.693 78.1632L386.64 78.1243C385.382 77.2087 384.381 76.4415 383.392 75.6841C382.75 75.1918 382.113 74.7035 381.414 74.1813C379.838 73.0037 378.08 71.7587 376.154 70.8245C374.112 69.8348 371.855 69.1747 369.262 69.134C366.741 69.0944 364.267 69.6469 361.771 70.5638C356.985 72.3224 351.059 75.8442 343.036 81.0948C336.994 85.0488 329.432 90.2111 319.861 96.7451C316.529 99.0193 312.954 101.46 309.116 104.073C300.043 110.153 292.706 114.726 286.623 117.937C280.486 121.177 275.997 122.828 272.572 123.38C269.355 123.9 267.204 123.438 265.362 122.41C263.315 121.268 261.067 119.097 258.357 115.159L258.299 115.076L258.24 114.995C253.97 109.187 249.267 104.079 243.25 101.556C236.804 98.853 230.08 99.5785 222.946 102.729C216.022 105.787 208.139 111.364 198.694 119.294C189.173 127.288 177.672 138.015 163.489 151.722L163.485 151.726C140.134 174.329 126.241 188.229 116.753 200.541C107.051 213.131 102.014 223.975 95.9781 240.182L95.9725 240.197L95.9671 240.212C85.8053 267.911 81.1359 289.548 83.6396 310.25C86.1521 331.024 95.7752 349.96 112.278 372.504L112.289 372.519L112.3 372.533C118.98 381.55 124.105 399.172 126.064 417.406C127.025 426.358 127.181 435.087 126.482 442.496C125.765 450.085 124.217 455.536 122.334 458.543C113.367 472.582 105.93 491.389 101.177 510.168C96.4424 528.876 94.1978 548.245 96.1283 563.435C97.1537 573.053 97.4649 579.381 97.1386 583.18C97.0991 583.639 97.053 584.022 97.0063 584.337C96.5771 584.477 96.208 584.623 95.9182 584.743C94.8918 585.169 93.8202 585.729 92.7669 586.337C90.6479 587.56 88.1511 589.243 85.4737 591.208C80.096 595.156 73.5943 600.534 67.255 606.418L67.2381 606.433L67.2213 606.449C36.3965 635.468 16.9218 680.382 9.59434 738.142L9.59297 738.153L9.59164 738.164C5.74038 769.357 4.84489 790.438 10.654 807.723C16.5799 825.356 29.1244 838.086 49.1454 853.618C49.1462 853.619 49.147 853.62 49.1478 853.62L53.132 848.484C95.3727 881.342 103.615 895.423 112.887 948.621L706.487 39.1024ZM706.487 39.1024L706.507 39.0874C717.444 30.7827 738.15 20.0676 753.044 14.682L753.06 14.6763L753.076 14.6707C773.06 7.56189 790.45 5.3877 813.407 7.00928L813.447 7.01221L813.488 7.0155C833.181 8.6543 858.576 15.807 882.01 25.1915C905.358 34.5414 927.659 46.4659 940.856 58.1442C945.871 62.458 950.837 66.3486 954.799 69.1257C956.797 70.5261 958.439 71.5721 959.646 72.2393C960.105 72.4932 960.439 72.6573 960.66 72.7561C962.41 72.9446 963.839 73.6443 964.765 74.1857C965.951 74.8794 967.065 75.767 968.072 76.6764C970.092 78.5023 972.284 80.9746 974.537 83.8053C979.077 89.5074 984.413 97.3597 989.891 106.24C1000.85 123.999 1012.75 146.488 1020.39 165.42C1032.14 194.087 1034.76 211.664 1036.31 258.395C1036.31 258.398 1036.32 258.4 1036.32 258.402L1038.23 311.371L1067.23 325.817L1067.25 325.826L1067.27 325.835C1087.91 336.282 1101.76 345.662 1108.85 359.191C1115.98 372.781 1115.58 389.173 1111.96 411.431L1111.95 411.468L1111.95 411.504C1108.74 429.889 1098.25 462.21 1088.82 483.418C1080.85 501.653 1076.89 511.865 1074.72 523.632C1072.52 535.554 1072.12 549.299 1071.86 574.704C1071.86 599.524 1072.26 613.586 1074.35 625.801C1076.41 637.893 1080.16 648.414 1087.35 666.099C1099 694.398 1105.63 715.363 1107.26 735.301C1108.9 755.401 1105.42 773.927 1097.82 797.299L1097.81 797.309L1097.81 797.32C1091.21 817.365 1080.97 857.249 1074.27 884.916C1069.15 907.429 1065.55 921.282 1061.09 930.939C1056.39 941.118 1050.78 946.593 1042.62 952.673C1038.25 956.366 1034.34 960.233 1031.56 963.512C1030.15 965.181 1029.14 966.57 1028.52 967.613C1028.27 968.029 1028.14 968.308 1028.07 968.463C1027.85 978.028 1021.74 984.689 1012.97 988.746C1004.32 992.747 992.217 994.744 977.51 995.275L977.468 995.277L977.425 995.278C966.103 995.538 957.783 995.195 951.697 993.557C948.534 992.705 945.725 991.445 943.329 989.553C940.952 987.676 939.281 985.412 938.042 982.947C936.724 980.603 935.357 979.366 934.107 978.71C932.862 978.056 931.199 977.698 928.798 978.013C923.659 978.688 916.213 982.306 906.178 990.165C900.75 994.764 890.535 1001.25 878.789 1008.03C866.813 1014.95 852.783 1022.45 839.535 1029.02L839.506 1029.04L839.478 1029.05L792.086 1052L787.703 1054.12L784.434 1050.51L767.473 1031.78C762.421 1026.39 757.654 1020.62 753.937 1015.72C751.448 1012.43 749.183 1009.22 747.664 1006.66C747.166 1007.24 746.624 1007.94 746.048 1008.77C742.146 1014.42 738.092 1024.05 736.427 1034.16C732.946 1055.84 725.905 1071.91 711.716 1082.91C697.822 1093.67 678.089 1098.75 651.276 1101.13C616.773 1104.4 589.527 1097.2 560.505 1077.61L560.461 1077.58L560.417 1077.55C555.201 1073.91 551.211 1071.72 548.367 1070.66C547.686 1070.4 547.143 1070.24 546.719 1070.14C546.721 1070.24 546.725 1070.36 546.73 1070.48C546.832 1072.85 547.663 1076.61 549.637 1081.98L549.652 1082.02L549.666 1082.06C552.193 1089.22 553.925 1095.14 553.276 1100.69C552.578 1106.65 549.307 1111.07 545.345 1115.61L545.337 1115.62L545.33 1115.63C537.588 1124.45 522.985 1130.09 502.727 1134.02C482.073 1138.03 453.986 1140.52 417.562 1141.83L417.553 1141.83L417.543 1141.83C393.908 1142.61 378.478 1142.76 368.914 1142.01C364.236 1141.64 360.276 1141.02 357.324 1139.8C355.798 1139.17 354.094 1138.2 352.746 1136.61C351.591 1135.24 350.902 1133.66 350.659 1132.01C350.603 1131.95 350.538 1131.88 350.461 1131.8C349.686 1130.99 348.336 1129.87 346.358 1128.54C342.45 1125.92 336.85 1123.01 330.526 1120.54C323.362 1117.85 316.094 1114.64 310.002 1111.63C304.057 1108.68 298.754 1105.69 295.858 1103.41L295.54 1103.16L295.255 1102.87C294.088 1101.69 291.802 1100.28 288.892 1099.15C285.996 1098.02 283.35 1097.5 281.85 1097.5C276.333 1097.5 271.593 1094.9 267.784 1091.29C264.003 1087.7 260.762 1082.8 257.992 1077.19L257.883 1076.97L257.79 1076.74C255.316 1070.59 252.64 1066.72 247.445 1062.95C241.839 1058.88 233.178 1054.83 218.219 1049.09L218.178 1049.07L218.137 1049.06C199.04 1041.42 173.649 1035.44 162.705 1034.92L706.487 39.1024ZM746.142 1003.77C746.141 1003.77 746.145 1003.78 746.152 1003.79C746.146 1003.78 746.142 1003.77 746.142 1003.77ZM546.839 1068.8C546.837 1068.79 546.823 1068.82 546.806 1068.89C546.833 1068.84 546.841 1068.8 546.839 1068.8Z" stroke="black" stroke-width="13"/>
</g>
<defs>
<filter id="filter0_b_489_2957" x="-64" y="-64" width="1249" height="1277" filterUnits="userSpaceOnUse" color-interpolation-filters="sRGB">
<feFlood flood-opacity="0" result="BackgroundImageFix"/>
<feGaussianBlur in="BackgroundImageFix" stdDeviation="32"/>
<feComposite in2="SourceAlpha" operator="in" result="effect1_backgroundBlur_489_2957"/>
<feBlend mode="normal" in="SourceGraphic" in2="effect1_backgroundBlur_489_2957" result="shape"/>
</filter>
</defs>
</svg>
