<svg width="499" height="1169" viewBox="0 0 499 1169" fill="none" xmlns="http://www.w3.org/2000/svg">
<mask id="path-1-outside-1_586_889" maskUnits="userSpaceOnUse" x="0" y="0" width="499" height="1169" fill="black">
<rect fill="white" width="499" height="1169"/>
<path d="M277.75 376.439C274.818 380.747 274.818 384.322 275.75 389.377C277.963 395.475 281.821 398.689 287.567 401.463C293.931 404.127 297.838 403.099 304.122 400.619C308.369 398.612 311.428 396.301 314.125 392.377C314.952 389.733 315.211 388.142 314.75 385.377C309.898 378.527 303.993 373.45 295.75 371.377C288.75 370.627 283.449 372.521 277.75 376.439Z"/>
</mask>
<path d="M277.75 376.439C274.818 380.747 274.818 384.322 275.75 389.377C277.963 395.475 281.821 398.689 287.567 401.463C293.931 404.127 297.838 403.099 304.122 400.619C308.369 398.612 311.428 396.301 314.125 392.377C314.952 389.733 315.211 388.142 314.75 385.377C309.898 378.527 303.993 373.45 295.75 371.377C288.75 370.627 283.449 372.521 277.75 376.439Z" stroke="black" stroke-width="24" mask="url(#path-1-outside-1_586_889)"/>
</svg>
