<svg width="511" height="1181" viewBox="0 0 511 1181" fill="none" xmlns="http://www.w3.org/2000/svg">
<mask id="path-1-outside-1_586_898" maskUnits="userSpaceOnUse" x="0" y="0" width="511" height="1181" fill="black">
<rect fill="white" width="511" height="1181"/>
<path d="M270.184 19.3203C265.907 18.8935 261.702 18.4738 257.52 17.4277C231.169 10.0823 203.677 10.6282 177.016 16.4512L173.375 17.2519C166.691 18.6884 160.058 20.0029 153.705 22.5732C152.252 23.1706 150.789 23.7414 149.32 24.2978C147.552 24.9579 145.787 25.6217 144.022 26.2891L141.313 27.3144C133.425 30.2787 125.04 32.8491 118.168 37.8418C116.442 39.1439 114.742 40.3821 112.901 41.5181C98.1663 50.0912 82.5999 62.1529 75.477 78.2559C75.23 78.977 76 80.3769 74.7505 80.3769C74.0705 80.3769 73.1012 79.5 72.7505 80.3769C72.0705 82.0769 72.6174 85.3769 70.7505 85.3769H68.7505C67.5 85.3769 67.81 87.4107 66.4106 89.1465C64.0568 92.1564 61.9735 94.8903 60.3755 98.3769C58.6778 101.446 54.3598 106.471 52.4016 109.382C49.1503 114.103 46.2507 118.91 43.5654 123.973L42.188 126.627C38.7064 133.334 35.3001 139.997 32.7973 147.143L31.7505 150.377C24.366 171.641 18.4065 202.496 27.188 223.877L28.7505 227.377C29.6972 229.751 30.6772 232.051 31.7505 234.377C33 236.5 34.821 237.493 36.0974 239.594L37.4575 242.166L38.9868 245.021C48.4064 262.834 55.8449 274.432 75.6509 280.76L78.063 281.502C83.2566 283.122 88.3794 284.642 93.7505 285.564C96.3161 285.937 98.7513 286.377 101.247 287.086C106.955 288.825 112.235 289.712 118.187 289.996C128.014 290.443 135.509 291.718 144.008 296.721C146.75 298.377 148.5 298.5 149.618 299.596C150 300 152.603 303.229 153.438 304.064C157.014 307.641 159.737 311.561 162.192 315.959C164.994 321.189 167.691 326.483 171.071 331.369C176.399 337.738 182.609 340.024 190.661 341.15L192.75 341.377C188.307 346.504 184.405 352.378 181.805 358.662C181.128 360.57 180.44 362.474 179.75 364.377C178.042 366.574 176.775 368.314 175.766 370.928L175 373.689C174.038 376.998 173.72 379.158 174.205 382.594C174.804 386.342 174.804 386.342 174.94 390.014L175.032 393.85C175.109 396.713 175.182 399.576 175.25 402.439C175.302 404.613 175.355 406.787 175.413 408.961L175.469 411.037C175.602 416.593 176.044 421.778 177.504 427.15L178.313 429.752L179.129 432.4L179.75 434.377C181.666 439.352 182.745 451.31 183.75 456.564C183.75 461.914 181.956 466.068 178.247 469.951L176.75 471.377C173.379 475.23 170.473 477.358 165.668 478.936C161.75 479.837 159.569 478.856 156.188 476.877C150.779 471.33 149.491 464.722 148.25 457.252C148.062 455.915 147.864 454.579 147.657 453.244C145.699 444.891 141.286 440.564 134.438 435.752C127.173 432.035 120.476 430.152 112.375 432.252C109.509 433.142 105.5 433.5 103.938 434.252C102.785 434.807 90.972 440.5 86.7505 447.377C77.6126 462.263 75.3714 478.527 79.188 495.627C80.5962 501.5 81.7056 507.316 81.7505 513.377C81.7625 515 80.6756 515.5 79.688 518.002C76.5637 522.688 70.088 528.735 64.563 530.252L60.7505 530.377L60.1959 530.399C54.905 530.613 49.724 530.823 44.563 529.439C36.9044 527.305 29.359 526.473 21.7505 529.377C18.843 531.575 17.8815 532.829 17.0278 536.4C16.6873 539.759 16.3465 543.053 15.7505 546.377C12.4725 552.361 12.2338 557.358 12.145 564.049C12.1396 566.269 12.126 568.483 12.0576 570.702C11.7589 580.173 12.4674 586.725 17.9116 594.857C19.1593 596.567 20.3743 598.301 21.5588 600.055C22.6349 601.65 23.7383 603.227 24.8637 604.787L26.7505 607.377C27.8793 608.988 29.0086 610.599 30.1533 612.199L31.313 613.814L33.4419 616.811C37.446 621.262 41.6862 622.572 47.51 623.504C52.7587 624.298 57.8373 625.123 62.688 627.377C64.8295 628.458 66.8324 629.404 69.1138 630.158C70.665 630.625 72.2111 631.11 73.7505 631.615C79.6865 633.876 83.1711 638.774 85.7505 644.377C86.6329 649.77 85.113 653.484 82.8208 658.264L81.7505 660.377C80.553 663.005 80.2895 664.099 77.688 665.439L74.7505 666.377C72.4919 667.252 70.2437 668.087 67.938 668.83C61.3427 670.479 53.4283 666.496 47.7505 663.225C45.7512 662.054 43.9485 661.124 41.7505 660.377C37.1882 659.956 31.9419 659.281 27.7505 661.377L27.7108 661.409C25.1858 663.429 23.0934 665.103 22.227 668.322C21.6479 671.913 21.3611 674.592 19.0786 677.525C14.5171 683.017 13.3568 687.076 13.3868 694.112L13.4575 697.166C13.6329 711.702 14.2128 726.23 14.8611 740.752C14.963 743.02 15.0645 745.288 15.1641 747.556L15.2352 749.185C15.9733 766.102 16.7113 783.014 18.313 799.877C19.3477 810.556 20.1157 821.198 20.6347 831.912C21.1917 843.472 21.8966 854.938 23.2505 866.439C24.4149 876.285 25.1419 886.09 25.6357 895.987C26.2124 907.685 26.9369 919.295 28.2505 930.939C29.3921 941.042 30.1577 951.114 30.6929 961.263C31.4828 976.398 30.2866 994.464 37.188 1008.25L38.7505 1010.81C40.313 1013.44 40.313 1013.44 41.7505 1015.38C42 1015.63 43.0905 1015.38 43.7505 1015.38C45 1015.38 45.7565 1021.72 47.7505 1024.38C48.359 1025.19 49.7605 1025.05 50.7505 1025.38C51.5 1025.63 52.0953 1030.4 53.8052 1032.77C56.3075 1034.84 56.3075 1034.84 62.063 1035.56C68.3056 1036.21 73.5937 1037.28 78.2505 1041.85C80.5695 1044.21 80.5695 1044.21 86.7505 1048.38C88.4238 1049.37 90.092 1050.36 91.7505 1051.38C93 1052.14 93.7285 1053.4 94.7505 1054.38C96 1055.5 97.4225 1055.02 98.7505 1055.38C100.776 1055.92 99.7505 1058.38 101.813 1059.56L103.75 1060.38C105 1061 103.039 1062.5 103.75 1063.38C108.784 1069.58 115.958 1074.18 123.875 1075.44C128.073 1076.04 132.062 1076.91 136.127 1078.1L138.313 1078.75C141.92 1079.76 145.018 1080.29 147.215 1083.54L147.75 1085.38C147.968 1086.12 151.456 1090.42 152.125 1091.5C154.5 1093.88 213.078 1118.72 213.938 1117L214.75 1115.38C215 1115 216.123 1115.78 216.75 1115.38C218.405 1114.32 220.066 1113.27 221.762 1112.28C225.37 1110.17 236 1110.5 248.75 1116.38C249.593 1116.77 248.75 1117.72 248.75 1118.38C248.75 1119.5 251.43 1119.72 252.75 1120.38C254.5 1121.5 252.75 1122.69 255.092 1128.55L256.063 1130.94L256.999 1133.34L257.926 1135.63C258.767 1137.73 258.767 1137.73 259.75 1139.38C260.349 1140.38 261.76 1140.05 262.75 1140.38C264 1141 263.75 1143.38 265.813 1144.56L267.75 1145.38C268.644 1145.75 267.75 1146.72 267.75 1147.38C267.75 1148.16 268.805 1148.22 269.325 1148.64L269.495 1148.75C272.287 1150.64 274.971 1152.45 277.149 1155.04L278.313 1156.75C279.135 1157.95 279.947 1159.16 280.75 1160.38C282.756 1163.61 284.564 1166.24 287.75 1168.38C293.171 1169.07 298.145 1167.99 303.415 1166.75C308.561 1165.24 313.194 1163.23 315.875 1158.31L316.75 1156.38C319.411 1153.78 320.931 1151.25 322.554 1147.88L322.947 1147.05C324.946 1142.83 326.931 1138.63 329.5 1134.71L329.594 1134.58C331.638 1131.78 333.456 1129.28 334.544 1125.94C335.476 1122.16 336.429 1118.39 337.612 1114.67C341.189 1104.02 344.201 1093.95 344.938 1082.69C345.114 1078.25 344.677 1074.62 347.672 1071.15C351.825 1067.6 351.825 1067.6 355.188 1048.69C356.061 1043.64 357.135 1038.73 358.539 1033.81C362.868 1018.85 367.039 1004.09 365.75 988.377C364.655 985.426 364.655 985.426 364.393 982.397L364.067 978.76C363.812 976.007 363.56 973.255 363.313 970.502C362.535 961.81 361.662 953.174 360.27 944.553C359.543 940.111 358.866 935.661 358.202 931.209L357.688 927.752C355.029 910.609 354.627 893.398 354.247 876.081L354.188 873.314C353.588 846.055 352.838 818.665 354.981 791.454C356.239 776.34 357.012 761.319 357.18 746.152L357.184 745.646C357.357 727.446 357.529 709.234 358.508 691.056L358.625 688.877L358.655 688.266C358.969 681.721 359.274 675.347 361.196 669.033C363.021 663.603 364.191 658.147 365.324 652.536L365.934 649.494C366.353 647.414 366.771 645.333 367.188 643.252C368.244 637.848 369.126 632.46 371.325 627.385C372.75 624.377 372.75 624.377 373.524 622.252L374.125 620.377L374.868 618.1C376.407 613.351 377.98 608.613 379.571 603.881L380.75 600.377C382.752 594.213 385.607 588.742 388.735 583.064C389.779 581.17 390.806 579.271 391.807 577.354C395.784 569.643 399.795 562.07 404.563 554.814C406.865 551.334 409.1 547.913 410.875 544.127C411.894 541.947 412.97 540.055 414.329 538.061C418.965 531.619 426.539 523.103 428.75 515.377C428.94 514.713 430.922 512.128 431.923 510.451L433.125 508.377C435.466 504.406 437.757 500.442 439.813 496.314C440.96 493.889 442.2 491.604 443.551 489.279C446.999 483.424 450.18 477.66 452.813 471.377C456.316 462.908 460.384 454.755 464.727 446.689C471.304 434.504 477.387 422.466 481.571 409.217C482.157 407.301 482.747 405.388 483.367 403.483C489.188 385.678 492.676 367.088 494.206 348.43C494.369 346.411 494.557 344.394 494.75 342.377C498.509 331.103 499.273 319.206 498.837 307.416L498.75 305.377C498.433 297.888 497.816 290.493 496.813 283.064L496.744 282.584C496.296 279.457 495.848 276.335 495.528 273.191C494.694 264.246 493.645 255.878 490.946 247.26C490.278 245.146 489.657 243.032 489.078 240.892C485.902 228.769 468.465 182.416 463.768 170.789L462.75 168.377C461.399 165.15 460.025 161.947 458.504 158.795L457.313 156.564C455.933 153.918 453 148.957 451.5 147.5C446.729 142.865 429.455 120.854 425.368 115.6C423.37 113.03 415.5 105.692 413.036 103.033C412.514 102.47 402.964 92 400.004 89.9434C392.03 84.4014 384.81 78.0301 377.75 71.3769C375.533 69.0724 373.636 66.8583 370.817 65.3262C368.545 64.3498 368.545 64.3498 365.903 62.459C357.957 56.8499 350.024 51.1113 341.375 46.6269L338.75 45.3769L333.75 42.3769C330.721 40.8857 327.76 39.3826 324.856 37.6582C320.31 34.8832 315.97 32.2476 310.875 30.6269C308.336 29.9299 306.238 29.1253 303.856 27.9551C292.987 22.4317 282.662 20.5683 270.634 19.3652L270.184 19.3203Z"/>
</mask>
<path d="M270.184 19.3203C265.907 18.8935 261.702 18.4738 257.52 17.4277C231.169 10.0823 203.677 10.6282 177.016 16.4512L173.375 17.2519C166.691 18.6884 160.058 20.0029 153.705 22.5732C152.252 23.1706 150.789 23.7414 149.32 24.2978C147.552 24.9579 145.787 25.6217 144.022 26.2891L141.313 27.3144C133.425 30.2787 125.04 32.8491 118.168 37.8418C116.442 39.1439 114.742 40.3821 112.901 41.5181C98.1663 50.0912 82.5999 62.1529 75.477 78.2559C75.23 78.977 76 80.3769 74.7505 80.3769C74.0705 80.3769 73.1012 79.5 72.7505 80.3769C72.0705 82.0769 72.6174 85.3769 70.7505 85.3769H68.7505C67.5 85.3769 67.81 87.4107 66.4106 89.1465C64.0568 92.1564 61.9735 94.8903 60.3755 98.3769C58.6778 101.446 54.3598 106.471 52.4016 109.382C49.1503 114.103 46.2507 118.91 43.5654 123.973L42.188 126.627C38.7064 133.334 35.3001 139.997 32.7973 147.143L31.7505 150.377C24.366 171.641 18.4065 202.496 27.188 223.877L28.7505 227.377C29.6972 229.751 30.6772 232.051 31.7505 234.377C33 236.5 34.821 237.493 36.0974 239.594L37.4575 242.166L38.9868 245.021C48.4064 262.834 55.8449 274.432 75.6509 280.76L78.063 281.502C83.2566 283.122 88.3794 284.642 93.7505 285.564C96.3161 285.937 98.7513 286.377 101.247 287.086C106.955 288.825 112.235 289.712 118.187 289.996C128.014 290.443 135.509 291.718 144.008 296.721C146.75 298.377 148.5 298.5 149.618 299.596C150 300 152.603 303.229 153.438 304.064C157.014 307.641 159.737 311.561 162.192 315.959C164.994 321.189 167.691 326.483 171.071 331.369C176.399 337.738 182.609 340.024 190.661 341.15L192.75 341.377C188.307 346.504 184.405 352.378 181.805 358.662C181.128 360.57 180.44 362.474 179.75 364.377C178.042 366.574 176.775 368.314 175.766 370.928L175 373.689C174.038 376.998 173.72 379.158 174.205 382.594C174.804 386.342 174.804 386.342 174.94 390.014L175.032 393.85C175.109 396.713 175.182 399.576 175.25 402.439C175.302 404.613 175.355 406.787 175.413 408.961L175.469 411.037C175.602 416.593 176.044 421.778 177.504 427.15L178.313 429.752L179.129 432.4L179.75 434.377C181.666 439.352 182.745 451.31 183.75 456.564C183.75 461.914 181.956 466.068 178.247 469.951L176.75 471.377C173.379 475.23 170.473 477.358 165.668 478.936C161.75 479.837 159.569 478.856 156.188 476.877C150.779 471.33 149.491 464.722 148.25 457.252C148.062 455.915 147.864 454.579 147.657 453.244C145.699 444.891 141.286 440.564 134.438 435.752C127.173 432.035 120.476 430.152 112.375 432.252C109.509 433.142 105.5 433.5 103.938 434.252C102.785 434.807 90.972 440.5 86.7505 447.377C77.6126 462.263 75.3714 478.527 79.188 495.627C80.5962 501.5 81.7056 507.316 81.7505 513.377C81.7625 515 80.6756 515.5 79.688 518.002C76.5637 522.688 70.088 528.735 64.563 530.252L60.7505 530.377L60.1959 530.399C54.905 530.613 49.724 530.823 44.563 529.439C36.9044 527.305 29.359 526.473 21.7505 529.377C18.843 531.575 17.8815 532.829 17.0278 536.4C16.6873 539.759 16.3465 543.053 15.7505 546.377C12.4725 552.361 12.2338 557.358 12.145 564.049C12.1396 566.269 12.126 568.483 12.0576 570.702C11.7589 580.173 12.4674 586.725 17.9116 594.857C19.1593 596.567 20.3743 598.301 21.5588 600.055C22.6349 601.65 23.7383 603.227 24.8637 604.787L26.7505 607.377C27.8793 608.988 29.0086 610.599 30.1533 612.199L31.313 613.814L33.4419 616.811C37.446 621.262 41.6862 622.572 47.51 623.504C52.7587 624.298 57.8373 625.123 62.688 627.377C64.8295 628.458 66.8324 629.404 69.1138 630.158C70.665 630.625 72.2111 631.11 73.7505 631.615C79.6865 633.876 83.1711 638.774 85.7505 644.377C86.6329 649.77 85.113 653.484 82.8208 658.264L81.7505 660.377C80.553 663.005 80.2895 664.099 77.688 665.439L74.7505 666.377C72.4919 667.252 70.2437 668.087 67.938 668.83C61.3427 670.479 53.4283 666.496 47.7505 663.225C45.7512 662.054 43.9485 661.124 41.7505 660.377C37.1882 659.956 31.9419 659.281 27.7505 661.377L27.7108 661.409C25.1858 663.429 23.0934 665.103 22.227 668.322C21.6479 671.913 21.3611 674.592 19.0786 677.525C14.5171 683.017 13.3568 687.076 13.3868 694.112L13.4575 697.166C13.6329 711.702 14.2128 726.23 14.8611 740.752C14.963 743.02 15.0645 745.288 15.1641 747.556L15.2352 749.185C15.9733 766.102 16.7113 783.014 18.313 799.877C19.3477 810.556 20.1157 821.198 20.6347 831.912C21.1917 843.472 21.8966 854.938 23.2505 866.439C24.4149 876.285 25.1419 886.09 25.6357 895.987C26.2124 907.685 26.9369 919.295 28.2505 930.939C29.3921 941.042 30.1577 951.114 30.6929 961.263C31.4828 976.398 30.2866 994.464 37.188 1008.25L38.7505 1010.81C40.313 1013.44 40.313 1013.44 41.7505 1015.38C42 1015.63 43.0905 1015.38 43.7505 1015.38C45 1015.38 45.7565 1021.72 47.7505 1024.38C48.359 1025.19 49.7605 1025.05 50.7505 1025.38C51.5 1025.63 52.0953 1030.4 53.8052 1032.77C56.3075 1034.84 56.3075 1034.84 62.063 1035.56C68.3056 1036.21 73.5937 1037.28 78.2505 1041.85C80.5695 1044.21 80.5695 1044.21 86.7505 1048.38C88.4238 1049.37 90.092 1050.36 91.7505 1051.38C93 1052.14 93.7285 1053.4 94.7505 1054.38C96 1055.5 97.4225 1055.02 98.7505 1055.38C100.776 1055.92 99.7505 1058.38 101.813 1059.56L103.75 1060.38C105 1061 103.039 1062.5 103.75 1063.38C108.784 1069.58 115.958 1074.18 123.875 1075.44C128.073 1076.04 132.062 1076.91 136.127 1078.1L138.313 1078.75C141.92 1079.76 145.018 1080.29 147.215 1083.54L147.75 1085.38C147.968 1086.12 151.456 1090.42 152.125 1091.5C154.5 1093.88 213.078 1118.72 213.938 1117L214.75 1115.38C215 1115 216.123 1115.78 216.75 1115.38C218.405 1114.32 220.066 1113.27 221.762 1112.28C225.37 1110.17 236 1110.5 248.75 1116.38C249.593 1116.77 248.75 1117.72 248.75 1118.38C248.75 1119.5 251.43 1119.72 252.75 1120.38C254.5 1121.5 252.75 1122.69 255.092 1128.55L256.063 1130.94L256.999 1133.34L257.926 1135.63C258.767 1137.73 258.767 1137.73 259.75 1139.38C260.349 1140.38 261.76 1140.05 262.75 1140.38C264 1141 263.75 1143.38 265.813 1144.56L267.75 1145.38C268.644 1145.75 267.75 1146.72 267.75 1147.38C267.75 1148.16 268.805 1148.22 269.325 1148.64L269.495 1148.75C272.287 1150.64 274.971 1152.45 277.149 1155.04L278.313 1156.75C279.135 1157.95 279.947 1159.16 280.75 1160.38C282.756 1163.61 284.564 1166.24 287.75 1168.38C293.171 1169.07 298.145 1167.99 303.415 1166.75C308.561 1165.24 313.194 1163.23 315.875 1158.31L316.75 1156.38C319.411 1153.78 320.931 1151.25 322.554 1147.88L322.947 1147.05C324.946 1142.83 326.931 1138.63 329.5 1134.71L329.594 1134.58C331.638 1131.78 333.456 1129.28 334.544 1125.94C335.476 1122.16 336.429 1118.39 337.612 1114.67C341.189 1104.02 344.201 1093.95 344.938 1082.69C345.114 1078.25 344.677 1074.62 347.672 1071.15C351.825 1067.6 351.825 1067.6 355.188 1048.69C356.061 1043.64 357.135 1038.73 358.539 1033.81C362.868 1018.85 367.039 1004.09 365.75 988.377C364.655 985.426 364.655 985.426 364.393 982.397L364.067 978.76C363.812 976.007 363.56 973.255 363.313 970.502C362.535 961.81 361.662 953.174 360.27 944.553C359.543 940.111 358.866 935.661 358.202 931.209L357.688 927.752C355.029 910.609 354.627 893.398 354.247 876.081L354.188 873.314C353.588 846.055 352.838 818.665 354.981 791.454C356.239 776.34 357.012 761.319 357.18 746.152L357.184 745.646C357.357 727.446 357.529 709.234 358.508 691.056L358.625 688.877L358.655 688.266C358.969 681.721 359.274 675.347 361.196 669.033C363.021 663.603 364.191 658.147 365.324 652.536L365.934 649.494C366.353 647.414 366.771 645.333 367.188 643.252C368.244 637.848 369.126 632.46 371.325 627.385C372.75 624.377 372.75 624.377 373.524 622.252L374.125 620.377L374.868 618.1C376.407 613.351 377.98 608.613 379.571 603.881L380.75 600.377C382.752 594.213 385.607 588.742 388.735 583.064C389.779 581.17 390.806 579.271 391.807 577.354C395.784 569.643 399.795 562.07 404.563 554.814C406.865 551.334 409.1 547.913 410.875 544.127C411.894 541.947 412.97 540.055 414.329 538.061C418.965 531.619 426.539 523.103 428.75 515.377C428.94 514.713 430.922 512.128 431.923 510.451L433.125 508.377C435.466 504.406 437.757 500.442 439.813 496.314C440.96 493.889 442.2 491.604 443.551 489.279C446.999 483.424 450.18 477.66 452.813 471.377C456.316 462.908 460.384 454.755 464.727 446.689C471.304 434.504 477.387 422.466 481.571 409.217C482.157 407.301 482.747 405.388 483.367 403.483C489.188 385.678 492.676 367.088 494.206 348.43C494.369 346.411 494.557 344.394 494.75 342.377C498.509 331.103 499.273 319.206 498.837 307.416L498.75 305.377C498.433 297.888 497.816 290.493 496.813 283.064L496.744 282.584C496.296 279.457 495.848 276.335 495.528 273.191C494.694 264.246 493.645 255.878 490.946 247.26C490.278 245.146 489.657 243.032 489.078 240.892C485.902 228.769 468.465 182.416 463.768 170.789L462.75 168.377C461.399 165.15 460.025 161.947 458.504 158.795L457.313 156.564C455.933 153.918 453 148.957 451.5 147.5C446.729 142.865 429.455 120.854 425.368 115.6C423.37 113.03 415.5 105.692 413.036 103.033C412.514 102.47 402.964 92 400.004 89.9434C392.03 84.4014 384.81 78.0301 377.75 71.3769C375.533 69.0724 373.636 66.8583 370.817 65.3262C368.545 64.3498 368.545 64.3498 365.903 62.459C357.957 56.8499 350.024 51.1113 341.375 46.6269L338.75 45.3769L333.75 42.3769C330.721 40.8857 327.76 39.3826 324.856 37.6582C320.31 34.8832 315.97 32.2476 310.875 30.6269C308.336 29.9299 306.238 29.1253 303.856 27.9551C292.987 22.4317 282.662 20.5683 270.634 19.3652L270.184 19.3203Z" stroke="#CBC4C8" stroke-width="16" mask="url(#path-1-outside-1_586_898)"/>
<path d="M233.666 316.504L235.907 315.794L238.125 315.118L238.135 315.115C239.611 314.662 241.086 314.2 242.558 313.727C244.183 313.216 245.854 312.758 247.62 312.286L248.005 312.183L248.374 312.03C250.471 311.159 252.243 310.129 253.831 308.601C255.289 307.198 256.353 305.586 257.278 304.153L259.037 301.479L259.087 301.403L259.134 301.326C261.266 297.864 263.322 294.355 265.295 290.783C266.18 289.527 266.722 288.856 267.251 288.336C267.618 287.977 268.061 287.61 268.75 287.169C272.023 286.798 275.364 286.816 279.157 286.875L279.185 286.876L279.212 286.876L282.762 286.899C288.348 287.012 292.494 287.436 297.256 289.056L297.272 289.062L297.289 289.067C305.08 291.669 312.18 291.9 319.37 292L322.843 292.104L322.936 292.107L323.029 292.107C327.222 292.102 331.196 291.744 335.059 290.442C338.997 289.115 342.461 286.93 345.852 283.757L346.149 283.478L346.406 283.163C348.847 280.162 350.435 277.185 351.237 273.786C352.005 270.533 351.954 267.27 351.738 263.984L351.703 263.448L351.574 262.928C349.894 256.174 347.476 248.228 339.749 242.832L339.527 242.677L339.292 242.542C329.037 236.68 317.584 235.923 307.709 235.271C306.975 235.222 306.25 235.174 305.534 235.125C297.76 234.566 294.663 234.322 292.717 233.861C291.583 233.591 291.052 233.337 289.149 232.036C288.193 230.317 288.061 228.737 288.185 225.279L288.187 225.219L288.188 225.16L288.224 222.919C288.398 218.437 289.368 215.81 291.937 211.394L292.429 210.549L292.627 209.591C294.122 202.36 292.181 196.653 289.211 191.293L289.094 191.082L288.961 190.882C286.15 186.648 281.291 180.623 273.895 179.064L273.432 178.966L272.959 178.942C261.01 178.341 253.02 185.069 246.405 190.638C245.907 191.058 245.415 191.471 244.931 191.875C240.676 195.358 236.223 197.53 230.527 199.804L230.461 199.83L230.395 199.858L227.953 200.901C222.591 203.147 217.098 204.808 211.212 206.349L210.825 206.451L210.455 206.602C207.88 207.659 205.452 208.986 203.319 210.934C201.156 212.909 199.562 215.278 198.32 218.075L198.228 218.282L198.152 218.495C197.215 221.121 196.385 223.737 195.596 226.308C192.748 234.951 189.612 240.862 183.658 247.303L183.631 247.332L183.605 247.362C178.892 252.597 175.49 258.984 175.875 267.14L175.917 268.014L176.206 268.841C177.911 273.706 180.92 276.115 183.384 278.087C183.599 278.259 183.809 278.428 184.015 278.594C188.891 282.84 192.092 287.309 195.54 293.35L195.644 293.531L195.759 293.704L197.759 296.704C198.313 297.535 198.993 298.16 199.336 298.466C199.772 298.855 200.253 299.237 200.717 299.588C201.651 300.293 202.767 301.06 203.872 301.789C205.94 303.152 208.209 304.541 209.713 305.425C210.421 305.999 211.637 307.303 213.072 309.18C214.535 311.095 215.827 313.076 216.515 314.305L216.63 314.51L216.76 314.706C217.864 316.361 219.411 317.629 221.33 318.295C223.125 318.918 224.813 318.864 226.048 318.691C227.274 318.52 228.408 318.179 229.233 317.911C229.756 317.741 230.092 317.626 230.384 317.525C230.711 317.413 230.984 317.319 231.406 317.188C231.411 317.186 231.417 317.184 231.423 317.183L233.589 316.528L233.628 316.516L233.666 316.504Z" stroke="#CBC4C8" stroke-width="8"/>
<path d="M280.351 377.494L279.424 378.132L278.791 379.062C276.846 381.919 275.722 384.788 275.345 387.906C274.984 390.884 275.351 393.757 275.85 396.465L275.94 396.954L276.11 397.423C279.028 405.463 284.33 409.665 290.958 412.865L291.103 412.935L291.25 412.997C295.164 414.635 298.716 415.283 302.421 414.944C305.914 414.625 309.165 413.446 312.324 412.2L312.507 412.127L312.685 412.043C317.692 409.678 321.658 406.739 325.07 401.775L325.582 401.03L325.852 400.166C326.305 398.719 326.717 397.209 326.889 395.536C327.067 393.806 326.965 392.164 326.669 390.39L326.443 389.032L325.647 387.908C320.248 380.287 313.253 374.082 303.214 371.557L302.807 371.455L302.39 371.41C293.625 370.471 286.916 372.981 280.351 377.494Z" stroke="#CBC4C8" stroke-width="8"/>
</svg>
