<svg width="1080" height="3077" viewBox="0 0 1080 3077" fill="none" xmlns="http://www.w3.org/2000/svg">
<mask id="path-1-inside-1_489_2962" fill="white">
<path d="M763.885 4.32983C753.515 6.63403 741.705 9.22632 737.384 10.3784C732.776 11.2424 729.319 12.9707 729.319 14.4106C729.319 15.8508 727.591 17.0029 725.862 17.0029C722.118 17.0029 685.247 30.2522 676.894 34.5725C674.013 36.0127 669.117 37.1648 665.948 37.1648C662.78 37.1648 660.187 38.3169 660.187 40.0449C660.187 41.4851 657.883 42.9253 655.002 42.9253C652.122 42.9253 648.665 44.0771 646.937 45.2292C645.497 46.6694 635.415 50.1257 624.757 53.0061C608.05 57.3264 598.257 57.9023 561.386 56.1743C437.525 50.9897 440.694 50.9897 421.106 55.8862C410.736 58.4785 398.926 61.3586 394.606 62.2229C389.997 63.0869 386.54 64.8149 386.54 66.2551C386.54 67.6953 385.1 68.8474 383.66 68.8474C380.203 68.8474 356.583 83.8247 355.431 86.7048C354.855 88.145 353.127 89.009 351.398 89.009C349.958 89.009 347.078 90.7373 344.773 92.4653C341.029 96.2097 318.561 116.083 300.414 132.213C294.941 136.821 288.604 140.854 286.587 140.854C284.571 140.854 282.843 141.718 282.843 142.87C282.843 144.31 277.946 148.342 271.897 152.375C257.782 161.879 221.776 197.882 215.151 209.403C211.982 214.588 208.526 218.62 207.374 218.62C206.221 218.62 205.069 220.06 205.069 221.788C205.069 223.516 200.46 234.173 194.988 245.694C189.515 257.215 184.906 269.024 184.906 271.616C184.906 274.209 183.754 276.225 182.025 276.225C180.585 276.225 179.145 280.833 179.145 286.306C179.145 291.778 177.993 296.387 176.552 296.387C175.4 296.387 173.384 301.283 172.232 307.043C171.367 313.092 168.487 327.781 165.895 339.59C163.302 351.399 160.71 368.681 159.846 377.609C158.981 386.826 157.541 394.315 156.101 394.315C151.78 394.315 149.764 443.855 149.476 542.647C149.476 646.336 152.068 709.125 156.677 718.054C158.693 721.51 158.405 724.391 156.389 726.407C154.661 728.135 153.22 732.455 153.22 735.912C153.22 739.368 152.356 742.824 151.204 743.4C148.324 744.552 133.057 775.083 133.057 779.691C133.057 781.419 131.905 783.148 130.176 783.148C128.736 783.148 127.296 785.164 127.296 787.468C127.296 789.772 126.144 794.093 124.703 796.973C123.263 799.565 119.807 807.63 117.214 814.83C114.622 822.031 111.165 830.096 109.725 832.688C108.285 835.568 107.132 840.465 107.132 843.345C107.132 846.513 105.98 849.969 104.252 850.833C102.812 851.698 101.371 856.306 101.371 861.202C101.371 865.811 100.219 871.859 98.7791 874.74C97.3388 877.332 94.4583 893.749 92.442 911.319C90.4256 928.6 87.8332 951.354 86.3929 961.723C85.2407 972.092 83.5124 995.422 82.3602 1013.57C81.4961 1031.71 79.7678 1049.28 78.3276 1052.45C76.8873 1055.62 75.159 1069.73 74.2949 1084.13C73.7188 1098.25 72.2785 1115.82 71.4144 1123.02C70.2622 1130.22 67.6697 1153.55 65.0773 1174.86C62.4848 1196.17 59.3163 1216.62 57.8761 1220.37C56.4358 1224.11 55.2836 1233.91 55.2836 1241.97C55.2836 1250.32 54.1314 1258.39 52.6912 1259.83C45.778 1267.03 43.1855 1384.54 49.2346 1409.6C51.2509 1417.38 53.8434 1430.34 55.2836 1438.4C56.7239 1446.18 60.7565 1469.8 64.5012 1490.82C68.2458 1511.56 72.2785 1529.71 73.4307 1530.86C74.5829 1532.01 75.4471 1538.06 75.4471 1544.11C75.4471 1550.16 76.8873 1555.05 78.3276 1555.05C80.0558 1555.05 81.208 1557.36 81.208 1560.24C81.208 1563.12 84.3766 1572.33 88.4093 1580.4C92.442 1588.75 95.6105 1596.53 95.6105 1598.26C95.6105 1599.7 97.0508 1601.14 98.491 1601.14C100.219 1601.14 101.371 1603.15 101.371 1605.46C101.371 1607.76 103.676 1612.37 106.268 1615.83C117.79 1629.65 141.122 1655 152.644 1665.65C166.471 1678.62 167.335 1682.94 158.117 1693.88C146.307 1707.99 143.139 1712.03 134.497 1723.55C129.888 1729.88 125.28 1735.64 124.415 1736.51C123.263 1737.37 118.943 1743.13 114.046 1749.47C109.437 1755.81 102.236 1764.73 97.9149 1769.34C93.3061 1773.95 89.8495 1778.56 89.8495 1779.71C89.8495 1780.86 86.969 1785.18 83.2244 1789.5C74.871 1799.01 55.2836 1835.88 55.2836 1841.64C55.2836 1843.94 54.1314 1845.96 52.6912 1845.96C51.2509 1845.96 49.5226 1850.85 48.6585 1856.61C47.7943 1862.66 44.9138 1879.08 42.3214 1893.48C40.017 1907.59 36.5604 1927.76 34.8321 1938.13C33.3919 1948.49 30.7994 1963.76 29.3592 1971.82C22.1579 2011.28 21.5818 2014.45 12.9404 2074.94C6.02718 2122.46 6.31523 2216.36 13.2284 2253.51C18.9894 2282.89 32.2397 2314.29 43.7616 2324.08C46.9302 2326.96 49.5226 2329.84 49.5226 2330.99C49.5226 2332.72 59.8924 2344.53 78.6156 2363.25C88.1212 2373.04 104.252 2381.68 123.263 2387.44C139.682 2392.34 142.274 2394.36 139.97 2399.83C138.53 2403.57 134.209 2404.72 119.807 2404.72C109.437 2404.72 101.371 2405.88 101.371 2407.61C101.371 2409.05 98.491 2410.49 95.3225 2410.49C88.9854 2410.49 60.4685 2424.6 58.7402 2428.34C58.1641 2429.78 56.1478 2430.65 54.4195 2430.94C52.4031 2430.94 46.3541 2436.7 40.8811 2443.9C35.4082 2450.81 29.3592 2458.3 27.9189 2460.31C21.8699 2467.23 15.2448 2484.22 9.48377 2507.26C4.29888 2527.42 3.43473 2542.98 1.70644 2625.35C-1.17406 2769.08 -0.886006 2783.48 6.31523 2805.08C7.46742 2809.11 10.924 2820.63 13.8045 2831C16.397 2841.37 19.8535 2850.87 21.2938 2852.31C22.446 2854.04 23.5982 2857.5 23.5982 2860.38C23.5982 2863.26 25.0384 2865.56 26.4787 2865.56C28.207 2865.56 29.3592 2868.16 29.3592 2871.32C29.3592 2883.13 65.9414 2925.76 84.0885 2935.27C88.1212 2937.28 91.8659 2939.59 92.73 2940.45C95.6105 2943.33 137.378 2963.49 140.834 2963.49C142.563 2963.49 144.579 2964.36 145.155 2965.8C145.731 2966.95 155.237 2971.56 166.183 2976.17C177.417 2980.49 188.65 2985.38 191.243 2986.82C194.123 2988.26 198.444 2989.41 200.749 2989.41C203.053 2989.41 205.069 2990.57 205.069 2992.29C205.069 2993.73 208.814 2995.17 213.135 2995.17C217.455 2995.17 222.352 2996.33 223.792 2997.48C225.521 2998.63 234.45 3002.09 243.956 3004.97C253.462 3007.85 264.119 3011.3 267.864 3012.74C271.609 3014.18 278.234 3015.34 282.843 3015.34C287.451 3015.34 292.06 3016.49 292.924 3018.22C293.788 3019.66 298.109 3021.1 302.142 3021.1C306.463 3021.1 313.664 3022.25 318.561 3023.69C323.458 3025.13 337.86 3028.59 350.534 3031.18C363.208 3033.77 377.611 3037.23 382.508 3038.67C387.404 3040.11 395.758 3041.26 401.231 3041.26C406.704 3041.26 412.465 3042.41 413.905 3043.85C415.633 3045.29 423.411 3047.31 431.188 3047.88C439.253 3048.75 453.368 3050.76 462.873 3052.49C472.379 3053.93 493.119 3057.39 508.961 3059.98C630.23 3079.85 697.922 3082.16 769.646 3067.76C786.929 3064.59 827.544 3053.07 833.593 3049.61C836.473 3048.17 841.37 3047.02 844.251 3047.02C847.419 3047.02 850.876 3045.58 851.74 3044.14C852.604 3042.41 855.773 3041.26 858.653 3041.26C861.246 3041.26 869.023 3038.67 875.648 3035.5C882.273 3032.33 891.779 3028.87 896.388 3027.72C901.284 3026.86 905.893 3024.84 906.757 3023.69C907.622 3022.25 910.79 3021.1 913.959 3021.1C916.839 3021.1 919.432 3019.66 919.432 3018.22C919.432 3016.49 922.024 3015.34 924.904 3015.34C928.073 3015.34 930.953 3014.47 931.53 3013.03C932.106 3011.88 939.019 3006.7 947.084 3001.51C960.911 2992.87 970.704 2981.06 979.058 2963.49C985.683 2949.38 997.205 2912.51 997.205 2905.02C997.205 2900.99 998.357 2896.67 1000.09 2895.81C1001.81 2894.65 1002.97 2872.48 1002.97 2838.49C1002.97 2785.21 1003.25 2782.61 1010.17 2768.21C1014.2 2759.86 1017.37 2751.51 1017.37 2749.2C1017.37 2746.9 1018.81 2744.02 1020.25 2743.15C1021.98 2742.29 1023.13 2738.26 1023.13 2734.51C1023.13 2730.77 1024.57 2726.74 1026.01 2725.87C1027.74 2725.01 1028.89 2719.54 1028.89 2714.06C1028.89 2708.59 1030.04 2704.27 1031.48 2704.27C1032.63 2704.27 1034.65 2699.95 1035.52 2694.77C1036.38 2689.87 1039.84 2672.88 1043.29 2657.32C1052.8 2613.54 1049.92 2521.95 1035.8 2430.65C1033.5 2413.94 1030.62 2393.78 1030.04 2386C1029.18 2377.94 1027.45 2369.01 1026.01 2365.84C1024.57 2362.67 1022.84 2355.47 1022.27 2350C1020.25 2336.75 1009.59 2298.16 1005.85 2291.82C1004.12 2288.94 1002.97 2282.89 1002.97 2278.28C1002.97 2273.39 1001.81 2269.07 1000.37 2268.2C997.493 2266.19 993.748 2248.62 994.036 2236.23C994.324 2216.64 997.781 2189.86 1000.37 2187.55C1003.83 2183.81 1003.83 2140.61 1000.09 2138.3C998.645 2137.44 997.205 2132.25 997.205 2127.36C996.917 2117.56 990.004 2095.39 981.938 2079.55C979.346 2074.07 977.041 2068.02 977.041 2065.72C977.041 2063.7 975.889 2061.98 974.161 2061.98C972.721 2061.98 971.28 2060.25 971.28 2058.23C971.28 2053.91 965.807 2041.53 955.15 2021.65C951.405 2014.45 943.916 2000.34 939.019 1989.97C933.834 1979.6 928.649 1970.67 927.497 1970.38C926.057 1969.81 925.193 1967.5 925.193 1965.2C925.193 1962.9 922.888 1958.58 920.296 1955.41C917.415 1952.53 912.518 1945.04 909.35 1938.99C906.181 1932.94 896.676 1915.95 888.61 1901.26C880.257 1886.28 873.344 1872.46 873.344 1870.15C873.344 1867.85 872.191 1866.12 870.463 1866.12C869.023 1866.12 867.583 1864.39 867.583 1862.09C867.583 1860.07 864.414 1852.29 860.381 1844.81C856.349 1837.32 853.18 1828.68 853.18 1825.51C853.18 1822.63 852.028 1820.04 850.3 1820.04C848.859 1820.04 847.419 1816.29 847.419 1811.68C847.419 1806.79 846.267 1802.47 844.827 1801.6C842.234 1799.87 840.506 1794.11 835.897 1771.07C834.169 1763.87 831.865 1717.21 830.424 1667.38C828.408 1609.2 826.392 1576.37 824.375 1575.79C822.935 1575.21 821.495 1568.88 821.495 1561.97C821.495 1555.05 820.343 1549.29 818.614 1549.29C817.174 1549.29 815.734 1545.55 815.734 1541.23C815.734 1536.91 814.582 1532.01 813.429 1530.57C812.277 1528.84 808.821 1519.91 805.652 1510.41C802.772 1500.9 799.315 1491.98 797.875 1490.25C794.706 1486.79 794.994 1437.83 798.163 1435.81C799.603 1434.95 801.331 1426.59 802.195 1417.67C803.06 1408.45 805.076 1392.03 806.804 1381.09L809.973 1361.21L838.778 1332.41C854.62 1316.57 867.583 1302.46 867.583 1301.02C867.583 1299.58 869.887 1295.83 873.056 1292.66C880.257 1284.89 893.507 1257.24 893.507 1250.04C893.507 1246.58 894.947 1243.99 896.388 1243.99C898.116 1243.99 899.268 1238.8 899.268 1232.75C899.268 1226.42 900.708 1220.37 902.149 1219.5C903.877 1218.64 905.029 1213.46 905.029 1207.98C905.029 1202.51 906.181 1191.85 907.91 1184.37C909.35 1176.88 912.23 1149.8 913.959 1124.46C920.008 1035.74 923.176 1013.86 938.155 953.082C940.747 942.713 943.628 930.904 944.492 926.296C945.356 921.975 947.084 917.655 948.525 916.791C949.965 915.927 951.117 911.031 951.117 905.846C951.117 900.95 952.269 895.477 953.709 893.749C954.862 892.309 958.318 881.94 961.199 870.995C963.791 859.762 967.248 848.529 968.688 845.937C970.128 843.057 971.28 837.008 971.28 832.4C971.28 827.503 972.721 822.895 974.161 822.031C975.889 821.167 977.041 816.559 977.041 811.662C977.041 807.054 978.194 801.005 979.634 798.125C983.378 790.924 993.748 748.009 996.341 730.439C997.205 724.679 998.933 719.782 1000.37 719.782C1001.81 719.782 1002.97 715.462 1002.97 709.99C1002.97 704.517 1004.41 699.045 1005.85 698.181C1007.57 697.317 1008.73 693.572 1008.73 690.404C1008.73 686.948 1009.88 680.323 1011.61 675.427C1013.05 670.53 1016.5 658.721 1019.1 649.217C1021.4 639.712 1024.86 629.631 1026.3 627.039C1027.74 624.158 1028.89 619.838 1028.89 616.958C1028.89 614.365 1030.04 608.317 1031.77 603.421C1033.21 598.524 1036.67 586.715 1039.26 577.21C1042.14 567.706 1045.31 558.777 1046.75 557.337C1047.9 555.609 1049.05 550.712 1049.05 546.392C1049.05 542.071 1050.49 538.327 1051.93 538.327C1053.66 538.327 1054.81 534.295 1054.81 529.686C1054.81 524.79 1055.97 518.741 1057.41 515.861C1058.85 513.269 1062.02 500.596 1064.9 487.923C1067.49 475.25 1070.95 460.272 1072.39 454.512C1073.83 448.751 1074.98 436.366 1074.98 426.862C1074.98 417.645 1076.42 408.428 1078.15 406.7C1081.6 403.244 1079.88 324.613 1075.84 297.827C1072.1 274.497 1063.17 250.879 1051.65 233.885C1046.46 226.397 1041.28 219.484 1040.12 218.62C1027.74 209.691 1021.98 205.083 1018.81 201.915C1016.5 200.187 1013.62 198.458 1012.18 198.458C1010.46 198.458 1008.73 197.594 1008.15 196.154C1007.29 193.85 966.672 166.776 964.367 166.776C959.182 166.776 924.328 143.158 913.671 132.213C901.572 120.404 879.105 81.2324 879.105 72.3037C879.105 70.5754 877.952 68.8474 876.224 68.8474C874.784 68.8474 873.344 66.2551 873.344 63.0869C873.344 59.9187 872.191 57.3264 870.463 57.3264C869.023 57.3264 867.583 55.5981 867.583 53.582C867.583 51.854 863.838 46.0935 859.517 41.197C855.197 36.3005 849.148 28.812 845.979 24.4917C842.81 20.4592 838.778 17.0029 836.761 17.0029C834.745 17.0029 833.017 15.5627 833.017 14.1228C833.017 12.3945 830.424 11.2424 827.256 11.2424C824.087 11.2424 821.495 10.0903 821.495 8.93823C821.495 6.05811 797.875 -0.278564 788.945 0.00952148C785.489 0.297607 774.255 2.02563 763.885 4.32983ZM522.788 832.976C527.396 842.769 532.581 855.73 534.31 861.49C536.326 867.539 538.63 872.435 539.783 872.435C541.223 872.435 542.087 873.875 542.087 875.892C542.087 879.348 562.25 921.687 565.131 924.28C565.995 925.144 570.316 933.208 575.213 942.137C579.821 951.354 584.718 958.843 585.87 958.843C593.648 958.843 580.109 986.205 563.691 1003.77C562.25 1005.5 558.218 1010.4 555.049 1014.72C551.881 1019.33 547.56 1024.51 545.832 1026.53C543.815 1028.83 542.087 1031.71 542.087 1033.44C542.087 1035.17 541.223 1036.61 540.071 1036.61C538.63 1036.61 534.022 1043.52 529.413 1051.87C520.195 1068 515.298 1074.05 510.978 1074.05C508.673 1074.05 500.896 1058.5 492.542 1036.61C490.814 1032.58 488.51 1027.1 487.07 1024.51C485.629 1021.63 484.477 1016.16 484.477 1012.42C484.477 1008.38 483.037 1004.35 481.309 1003.2C479.004 1002.05 478.716 995.71 479.868 985.053C482.461 964.891 482.461 964.603 479.292 924.28C477.564 904.118 474.107 885.108 470.651 875.315C465.466 861.49 465.178 858.898 468.634 851.986C472.955 843.921 484.765 834.992 490.814 834.992C493.119 834.992 497.151 830.384 500.032 824.911C508.097 810.222 513.57 811.95 522.788 832.976Z"/>
</mask>
<path d="M763.885 4.32983C753.515 6.63403 741.705 9.22632 737.384 10.3784C732.776 11.2424 729.319 12.9707 729.319 14.4106C729.319 15.8508 727.591 17.0029 725.862 17.0029C722.118 17.0029 685.247 30.2522 676.894 34.5725C674.013 36.0127 669.117 37.1648 665.948 37.1648C662.78 37.1648 660.187 38.3169 660.187 40.0449C660.187 41.4851 657.883 42.9253 655.002 42.9253C652.122 42.9253 648.665 44.0771 646.937 45.2292C645.497 46.6694 635.415 50.1257 624.757 53.0061C608.05 57.3264 598.257 57.9023 561.386 56.1743C437.525 50.9897 440.694 50.9897 421.106 55.8862C410.736 58.4785 398.926 61.3586 394.606 62.2229C389.997 63.0869 386.54 64.8149 386.54 66.2551C386.54 67.6953 385.1 68.8474 383.66 68.8474C380.203 68.8474 356.583 83.8247 355.431 86.7048C354.855 88.145 353.127 89.009 351.398 89.009C349.958 89.009 347.078 90.7373 344.773 92.4653C341.029 96.2097 318.561 116.083 300.414 132.213C294.941 136.821 288.604 140.854 286.587 140.854C284.571 140.854 282.843 141.718 282.843 142.87C282.843 144.31 277.946 148.342 271.897 152.375C257.782 161.879 221.776 197.882 215.151 209.403C211.982 214.588 208.526 218.62 207.374 218.62C206.221 218.62 205.069 220.06 205.069 221.788C205.069 223.516 200.46 234.173 194.988 245.694C189.515 257.215 184.906 269.024 184.906 271.616C184.906 274.209 183.754 276.225 182.025 276.225C180.585 276.225 179.145 280.833 179.145 286.306C179.145 291.778 177.993 296.387 176.552 296.387C175.4 296.387 173.384 301.283 172.232 307.043C171.367 313.092 168.487 327.781 165.895 339.59C163.302 351.399 160.71 368.681 159.846 377.609C158.981 386.826 157.541 394.315 156.101 394.315C151.78 394.315 149.764 443.855 149.476 542.647C149.476 646.336 152.068 709.125 156.677 718.054C158.693 721.51 158.405 724.391 156.389 726.407C154.661 728.135 153.22 732.455 153.22 735.912C153.22 739.368 152.356 742.824 151.204 743.4C148.324 744.552 133.057 775.083 133.057 779.691C133.057 781.419 131.905 783.148 130.176 783.148C128.736 783.148 127.296 785.164 127.296 787.468C127.296 789.772 126.144 794.093 124.703 796.973C123.263 799.565 119.807 807.63 117.214 814.83C114.622 822.031 111.165 830.096 109.725 832.688C108.285 835.568 107.132 840.465 107.132 843.345C107.132 846.513 105.98 849.969 104.252 850.833C102.812 851.698 101.371 856.306 101.371 861.202C101.371 865.811 100.219 871.859 98.7791 874.74C97.3388 877.332 94.4583 893.749 92.442 911.319C90.4256 928.6 87.8332 951.354 86.3929 961.723C85.2407 972.092 83.5124 995.422 82.3602 1013.57C81.4961 1031.71 79.7678 1049.28 78.3276 1052.45C76.8873 1055.62 75.159 1069.73 74.2949 1084.13C73.7188 1098.25 72.2785 1115.82 71.4144 1123.02C70.2622 1130.22 67.6697 1153.55 65.0773 1174.86C62.4848 1196.17 59.3163 1216.62 57.8761 1220.37C56.4358 1224.11 55.2836 1233.91 55.2836 1241.97C55.2836 1250.32 54.1314 1258.39 52.6912 1259.83C45.778 1267.03 43.1855 1384.54 49.2346 1409.6C51.2509 1417.38 53.8434 1430.34 55.2836 1438.4C56.7239 1446.18 60.7565 1469.8 64.5012 1490.82C68.2458 1511.56 72.2785 1529.71 73.4307 1530.86C74.5829 1532.01 75.4471 1538.06 75.4471 1544.11C75.4471 1550.16 76.8873 1555.05 78.3276 1555.05C80.0558 1555.05 81.208 1557.36 81.208 1560.24C81.208 1563.12 84.3766 1572.33 88.4093 1580.4C92.442 1588.75 95.6105 1596.53 95.6105 1598.26C95.6105 1599.7 97.0508 1601.14 98.491 1601.14C100.219 1601.14 101.371 1603.15 101.371 1605.46C101.371 1607.76 103.676 1612.37 106.268 1615.83C117.79 1629.65 141.122 1655 152.644 1665.65C166.471 1678.62 167.335 1682.94 158.117 1693.88C146.307 1707.99 143.139 1712.03 134.497 1723.55C129.888 1729.88 125.28 1735.64 124.415 1736.51C123.263 1737.37 118.943 1743.13 114.046 1749.47C109.437 1755.81 102.236 1764.73 97.9149 1769.34C93.3061 1773.95 89.8495 1778.56 89.8495 1779.71C89.8495 1780.86 86.969 1785.18 83.2244 1789.5C74.871 1799.01 55.2836 1835.88 55.2836 1841.64C55.2836 1843.94 54.1314 1845.96 52.6912 1845.96C51.2509 1845.96 49.5226 1850.85 48.6585 1856.61C47.7943 1862.66 44.9138 1879.08 42.3214 1893.48C40.017 1907.59 36.5604 1927.76 34.8321 1938.13C33.3919 1948.49 30.7994 1963.76 29.3592 1971.82C22.1579 2011.28 21.5818 2014.45 12.9404 2074.94C6.02718 2122.46 6.31523 2216.36 13.2284 2253.51C18.9894 2282.89 32.2397 2314.29 43.7616 2324.08C46.9302 2326.96 49.5226 2329.84 49.5226 2330.99C49.5226 2332.72 59.8924 2344.53 78.6156 2363.25C88.1212 2373.04 104.252 2381.68 123.263 2387.44C139.682 2392.34 142.274 2394.36 139.97 2399.83C138.53 2403.57 134.209 2404.72 119.807 2404.72C109.437 2404.72 101.371 2405.88 101.371 2407.61C101.371 2409.05 98.491 2410.49 95.3225 2410.49C88.9854 2410.49 60.4685 2424.6 58.7402 2428.34C58.1641 2429.78 56.1478 2430.65 54.4195 2430.94C52.4031 2430.94 46.3541 2436.7 40.8811 2443.9C35.4082 2450.81 29.3592 2458.3 27.9189 2460.31C21.8699 2467.23 15.2448 2484.22 9.48377 2507.26C4.29888 2527.42 3.43473 2542.98 1.70644 2625.35C-1.17406 2769.08 -0.886006 2783.48 6.31523 2805.08C7.46742 2809.11 10.924 2820.63 13.8045 2831C16.397 2841.37 19.8535 2850.87 21.2938 2852.31C22.446 2854.04 23.5982 2857.5 23.5982 2860.38C23.5982 2863.26 25.0384 2865.56 26.4787 2865.56C28.207 2865.56 29.3592 2868.16 29.3592 2871.32C29.3592 2883.13 65.9414 2925.76 84.0885 2935.27C88.1212 2937.28 91.8659 2939.59 92.73 2940.45C95.6105 2943.33 137.378 2963.49 140.834 2963.49C142.563 2963.49 144.579 2964.36 145.155 2965.8C145.731 2966.95 155.237 2971.56 166.183 2976.17C177.417 2980.49 188.65 2985.38 191.243 2986.82C194.123 2988.26 198.444 2989.41 200.749 2989.41C203.053 2989.41 205.069 2990.57 205.069 2992.29C205.069 2993.73 208.814 2995.17 213.135 2995.17C217.455 2995.17 222.352 2996.33 223.792 2997.48C225.521 2998.63 234.45 3002.09 243.956 3004.97C253.462 3007.85 264.119 3011.3 267.864 3012.74C271.609 3014.18 278.234 3015.34 282.843 3015.34C287.451 3015.34 292.06 3016.49 292.924 3018.22C293.788 3019.66 298.109 3021.1 302.142 3021.1C306.463 3021.1 313.664 3022.25 318.561 3023.69C323.458 3025.13 337.86 3028.59 350.534 3031.18C363.208 3033.77 377.611 3037.23 382.508 3038.67C387.404 3040.11 395.758 3041.26 401.231 3041.26C406.704 3041.26 412.465 3042.41 413.905 3043.85C415.633 3045.29 423.411 3047.31 431.188 3047.88C439.253 3048.75 453.368 3050.76 462.873 3052.49C472.379 3053.93 493.119 3057.39 508.961 3059.98C630.23 3079.85 697.922 3082.16 769.646 3067.76C786.929 3064.59 827.544 3053.07 833.593 3049.61C836.473 3048.17 841.37 3047.02 844.251 3047.02C847.419 3047.02 850.876 3045.58 851.74 3044.14C852.604 3042.41 855.773 3041.26 858.653 3041.26C861.246 3041.26 869.023 3038.67 875.648 3035.5C882.273 3032.33 891.779 3028.87 896.388 3027.72C901.284 3026.86 905.893 3024.84 906.757 3023.69C907.622 3022.25 910.79 3021.1 913.959 3021.1C916.839 3021.1 919.432 3019.66 919.432 3018.22C919.432 3016.49 922.024 3015.34 924.904 3015.34C928.073 3015.34 930.953 3014.47 931.53 3013.03C932.106 3011.88 939.019 3006.7 947.084 3001.51C960.911 2992.87 970.704 2981.06 979.058 2963.49C985.683 2949.38 997.205 2912.51 997.205 2905.02C997.205 2900.99 998.357 2896.67 1000.09 2895.81C1001.81 2894.65 1002.97 2872.48 1002.97 2838.49C1002.97 2785.21 1003.25 2782.61 1010.17 2768.21C1014.2 2759.86 1017.37 2751.51 1017.37 2749.2C1017.37 2746.9 1018.81 2744.02 1020.25 2743.15C1021.98 2742.29 1023.13 2738.26 1023.13 2734.51C1023.13 2730.77 1024.57 2726.74 1026.01 2725.87C1027.74 2725.01 1028.89 2719.54 1028.89 2714.06C1028.89 2708.59 1030.04 2704.27 1031.48 2704.27C1032.63 2704.27 1034.65 2699.95 1035.52 2694.77C1036.38 2689.87 1039.84 2672.88 1043.29 2657.32C1052.8 2613.54 1049.92 2521.95 1035.8 2430.65C1033.5 2413.94 1030.62 2393.78 1030.04 2386C1029.18 2377.94 1027.45 2369.01 1026.01 2365.84C1024.57 2362.67 1022.84 2355.47 1022.27 2350C1020.25 2336.75 1009.59 2298.16 1005.85 2291.82C1004.12 2288.94 1002.97 2282.89 1002.97 2278.28C1002.97 2273.39 1001.81 2269.07 1000.37 2268.2C997.493 2266.19 993.748 2248.62 994.036 2236.23C994.324 2216.64 997.781 2189.86 1000.37 2187.55C1003.83 2183.81 1003.83 2140.61 1000.09 2138.3C998.645 2137.44 997.205 2132.25 997.205 2127.36C996.917 2117.56 990.004 2095.39 981.938 2079.55C979.346 2074.07 977.041 2068.02 977.041 2065.72C977.041 2063.7 975.889 2061.98 974.161 2061.98C972.721 2061.98 971.28 2060.25 971.28 2058.23C971.28 2053.91 965.807 2041.53 955.15 2021.65C951.405 2014.45 943.916 2000.34 939.019 1989.97C933.834 1979.6 928.649 1970.67 927.497 1970.38C926.057 1969.81 925.193 1967.5 925.193 1965.2C925.193 1962.9 922.888 1958.58 920.296 1955.41C917.415 1952.53 912.518 1945.04 909.35 1938.99C906.181 1932.94 896.676 1915.95 888.61 1901.26C880.257 1886.28 873.344 1872.46 873.344 1870.15C873.344 1867.85 872.191 1866.12 870.463 1866.12C869.023 1866.12 867.583 1864.39 867.583 1862.09C867.583 1860.07 864.414 1852.29 860.381 1844.81C856.349 1837.32 853.18 1828.68 853.18 1825.51C853.18 1822.63 852.028 1820.04 850.3 1820.04C848.859 1820.04 847.419 1816.29 847.419 1811.68C847.419 1806.79 846.267 1802.47 844.827 1801.6C842.234 1799.87 840.506 1794.11 835.897 1771.07C834.169 1763.87 831.865 1717.21 830.424 1667.38C828.408 1609.2 826.392 1576.37 824.375 1575.79C822.935 1575.21 821.495 1568.88 821.495 1561.97C821.495 1555.05 820.343 1549.29 818.614 1549.29C817.174 1549.29 815.734 1545.55 815.734 1541.23C815.734 1536.91 814.582 1532.01 813.429 1530.57C812.277 1528.84 808.821 1519.91 805.652 1510.41C802.772 1500.9 799.315 1491.98 797.875 1490.25C794.706 1486.79 794.994 1437.83 798.163 1435.81C799.603 1434.95 801.331 1426.59 802.195 1417.67C803.06 1408.45 805.076 1392.03 806.804 1381.09L809.973 1361.21L838.778 1332.41C854.62 1316.57 867.583 1302.46 867.583 1301.02C867.583 1299.58 869.887 1295.83 873.056 1292.66C880.257 1284.89 893.507 1257.24 893.507 1250.04C893.507 1246.58 894.947 1243.99 896.388 1243.99C898.116 1243.99 899.268 1238.8 899.268 1232.75C899.268 1226.42 900.708 1220.37 902.149 1219.5C903.877 1218.64 905.029 1213.46 905.029 1207.98C905.029 1202.51 906.181 1191.85 907.91 1184.37C909.35 1176.88 912.23 1149.8 913.959 1124.46C920.008 1035.74 923.176 1013.86 938.155 953.082C940.747 942.713 943.628 930.904 944.492 926.296C945.356 921.975 947.084 917.655 948.525 916.791C949.965 915.927 951.117 911.031 951.117 905.846C951.117 900.95 952.269 895.477 953.709 893.749C954.862 892.309 958.318 881.94 961.199 870.995C963.791 859.762 967.248 848.529 968.688 845.937C970.128 843.057 971.28 837.008 971.28 832.4C971.28 827.503 972.721 822.895 974.161 822.031C975.889 821.167 977.041 816.559 977.041 811.662C977.041 807.054 978.194 801.005 979.634 798.125C983.378 790.924 993.748 748.009 996.341 730.439C997.205 724.679 998.933 719.782 1000.37 719.782C1001.81 719.782 1002.97 715.462 1002.97 709.99C1002.97 704.517 1004.41 699.045 1005.85 698.181C1007.57 697.317 1008.73 693.572 1008.73 690.404C1008.73 686.948 1009.88 680.323 1011.61 675.427C1013.05 670.53 1016.5 658.721 1019.1 649.217C1021.4 639.712 1024.86 629.631 1026.3 627.039C1027.74 624.158 1028.89 619.838 1028.89 616.958C1028.89 614.365 1030.04 608.317 1031.77 603.421C1033.21 598.524 1036.67 586.715 1039.26 577.21C1042.14 567.706 1045.31 558.777 1046.75 557.337C1047.9 555.609 1049.05 550.712 1049.05 546.392C1049.05 542.071 1050.49 538.327 1051.93 538.327C1053.66 538.327 1054.81 534.295 1054.81 529.686C1054.81 524.79 1055.97 518.741 1057.41 515.861C1058.85 513.269 1062.02 500.596 1064.9 487.923C1067.49 475.25 1070.95 460.272 1072.39 454.512C1073.83 448.751 1074.98 436.366 1074.98 426.862C1074.98 417.645 1076.42 408.428 1078.15 406.7C1081.6 403.244 1079.88 324.613 1075.84 297.827C1072.1 274.497 1063.17 250.879 1051.65 233.885C1046.46 226.397 1041.28 219.484 1040.12 218.62C1027.74 209.691 1021.98 205.083 1018.81 201.915C1016.5 200.187 1013.62 198.458 1012.18 198.458C1010.46 198.458 1008.73 197.594 1008.15 196.154C1007.29 193.85 966.672 166.776 964.367 166.776C959.182 166.776 924.328 143.158 913.671 132.213C901.572 120.404 879.105 81.2324 879.105 72.3037C879.105 70.5754 877.952 68.8474 876.224 68.8474C874.784 68.8474 873.344 66.2551 873.344 63.0869C873.344 59.9187 872.191 57.3264 870.463 57.3264C869.023 57.3264 867.583 55.5981 867.583 53.582C867.583 51.854 863.838 46.0935 859.517 41.197C855.197 36.3005 849.148 28.812 845.979 24.4917C842.81 20.4592 838.778 17.0029 836.761 17.0029C834.745 17.0029 833.017 15.5627 833.017 14.1228C833.017 12.3945 830.424 11.2424 827.256 11.2424C824.087 11.2424 821.495 10.0903 821.495 8.93823C821.495 6.05811 797.875 -0.278564 788.945 0.00952148C785.489 0.297607 774.255 2.02563 763.885 4.32983ZM522.788 832.976C527.396 842.769 532.581 855.73 534.31 861.49C536.326 867.539 538.63 872.435 539.783 872.435C541.223 872.435 542.087 873.875 542.087 875.892C542.087 879.348 562.25 921.687 565.131 924.28C565.995 925.144 570.316 933.208 575.213 942.137C579.821 951.354 584.718 958.843 585.87 958.843C593.648 958.843 580.109 986.205 563.691 1003.77C562.25 1005.5 558.218 1010.4 555.049 1014.72C551.881 1019.33 547.56 1024.51 545.832 1026.53C543.815 1028.83 542.087 1031.71 542.087 1033.44C542.087 1035.17 541.223 1036.61 540.071 1036.61C538.63 1036.61 534.022 1043.52 529.413 1051.87C520.195 1068 515.298 1074.05 510.978 1074.05C508.673 1074.05 500.896 1058.5 492.542 1036.61C490.814 1032.58 488.51 1027.1 487.07 1024.51C485.629 1021.63 484.477 1016.16 484.477 1012.42C484.477 1008.38 483.037 1004.35 481.309 1003.2C479.004 1002.05 478.716 995.71 479.868 985.053C482.461 964.891 482.461 964.603 479.292 924.28C477.564 904.118 474.107 885.108 470.651 875.315C465.466 861.49 465.178 858.898 468.634 851.986C472.955 843.921 484.765 834.992 490.814 834.992C493.119 834.992 497.151 830.384 500.032 824.911C508.097 810.222 513.57 811.95 522.788 832.976Z" stroke="#cbc4c8" stroke-width="24" mask="url(#path-1-inside-1_489_2962)"/>
</svg>
