<svg width="1119" height="1147" viewBox="0 0 1119 1147" fill="none" xmlns="http://www.w3.org/2000/svg">
<path d="M752.214 14.1522L752.229 14.147L752.243 14.1417C772.156 7.05823 789.477 4.89087 812.372 6.50806L812.409 6.51074L812.446 6.51379C832.071 8.14685 857.415 15.2809 880.824 24.6556C904.152 33.9974 926.389 45.8959 939.523 57.5172C944.55 61.8417 949.532 65.7454 953.512 68.5353C955.517 69.9407 957.175 70.9978 958.404 71.6769C958.921 71.963 959.292 72.1425 959.53 72.2454C961.214 72.4105 962.601 73.0837 963.513 73.6173C964.659 74.2875 965.744 75.1508 966.736 76.0472C968.727 77.8469 970.9 80.2954 973.146 83.1167C977.668 88.797 982.992 96.6309 988.465 105.503C999.41 123.246 1011.3 145.712 1018.92 164.613C1030.64 193.199 1033.26 210.709 1034.82 257.419L1036.75 310.686L1066.01 325.264L1066.03 325.273L1066.04 325.281C1086.68 335.727 1100.39 345.047 1107.41 358.423C1114.46 371.855 1114.08 388.099 1110.46 410.351L1110.46 410.385L1110.45 410.418C1107.26 428.755 1096.78 461.041 1087.36 482.222C1079.39 500.455 1075.4 510.712 1073.23 522.542C1071.02 534.514 1070.62 548.305 1070.36 573.699C1070.36 598.517 1070.76 612.622 1072.85 624.885C1074.92 637.036 1078.69 647.601 1085.89 665.291C1097.53 693.578 1104.13 714.484 1105.76 734.342C1107.39 754.35 1103.94 772.805 1096.34 796.144L1096.34 796.154L1096.33 796.163C1089.73 816.231 1079.48 856.132 1072.78 883.797C1067.66 906.326 1064.07 920.128 1059.64 929.729C1054.98 939.813 1049.44 945.228 1041.31 951.281C1036.92 954.991 1032.98 958.882 1030.18 962.189C1028.76 963.87 1027.73 965.283 1027.09 966.359C1026.78 966.883 1026.63 967.207 1026.57 967.356C1026.39 976.722 1020.45 983.273 1011.76 987.293C1003.21 991.251 991.177 993.245 976.492 993.776L976.453 993.777L976.413 993.778C965.09 994.039 956.836 993.691 950.827 992.074C947.711 991.235 944.968 990.001 942.639 988.161C940.325 986.334 938.696 984.128 937.483 981.712C936.127 979.297 934.695 977.978 933.34 977.267C931.987 976.557 930.217 976.192 927.732 976.518C922.455 977.21 914.918 980.9 904.862 988.777C899.475 993.344 889.293 999.809 877.539 1006.6C865.572 1013.51 851.552 1021.01 838.312 1027.58L838.286 1027.59L838.26 1027.6L790.868 1050.55L786.822 1052.51L783.805 1049.18L766.841 1030.44C761.801 1025.07 757.044 1019.31 753.336 1014.42C750.641 1010.86 748.235 1007.42 746.749 1004.82C746.115 1005.5 745.402 1006.38 744.637 1007.49C740.689 1013.2 736.61 1022.91 734.935 1033.08C731.463 1054.69 724.459 1070.62 710.41 1081.51C696.634 1092.19 677.022 1097.26 650.23 1099.63C615.846 1102.89 588.714 1095.73 559.784 1076.2L559.744 1076.17L559.703 1076.14C554.472 1072.49 550.443 1070.27 547.542 1069.19C546.48 1068.79 545.73 1068.61 545.228 1068.52C545.216 1068.78 545.213 1069.1 545.23 1069.5C545.336 1071.94 546.187 1075.76 548.168 1081.15L548.181 1081.19L548.194 1081.23C550.725 1088.4 552.414 1094.22 551.779 1099.63C551.1 1105.42 547.922 1109.75 543.968 1114.28L543.961 1114.29L543.954 1114.3C536.332 1122.98 521.882 1128.6 501.632 1132.53C481.016 1136.53 452.96 1139.02 416.544 1140.33L416.536 1140.33L416.527 1140.33C392.887 1141.11 377.485 1141.26 367.953 1140.51C363.283 1140.14 359.39 1139.53 356.516 1138.34C355.031 1137.72 353.406 1136.79 352.128 1135.28C351.001 1133.95 350.344 1132.41 350.134 1130.8C350.051 1130.7 349.949 1130.58 349.823 1130.45C349.013 1129.61 347.631 1128.46 345.636 1127.13C341.692 1124.48 336.057 1121.55 329.705 1119.08C322.557 1116.39 315.303 1113.19 309.224 1110.18C303.281 1107.23 298.019 1104.26 295.167 1102.02L294.873 1101.79L294.611 1101.52C293.375 1100.27 291.018 1098.83 288.074 1097.68C285.143 1096.54 282.432 1096 280.85 1096C275.499 1096 270.877 1093.48 267.128 1089.92C263.405 1086.39 260.195 1081.55 257.441 1075.97L257.339 1075.76L257.254 1075.55C254.752 1069.34 252.024 1065.38 246.739 1061.54C241.074 1057.43 232.356 1053.37 217.398 1047.62L217.36 1047.61L217.323 1047.59C198.188 1039.94 172.73 1033.94 161.717 1033.42C152.632 1033.41 145.532 1032.97 139.61 1029.76C133.574 1026.48 129.653 1020.82 125.301 1013.32C121.966 1008.04 118.32 997.923 115.016 986.666C111.609 975.058 108.342 961.429 105.987 948.713L105.982 948.682L105.976 948.651C101.351 922.116 97.1098 906.252 89.2171 892.994C81.3335 879.752 69.4991 868.595 48.4543 852.225C28.4465 836.704 16.0044 824.05 10.1279 806.564C4.35954 789.399 5.23567 768.426 9.08787 737.225L9.0891 737.215L9.09036 737.205C16.4089 679.515 35.8517 634.726 66.564 605.813L66.5795 605.799L66.5952 605.784C72.9223 599.912 79.4093 594.546 84.7696 590.612C87.4392 588.652 89.9198 586.981 92.0169 585.77C93.0597 585.168 94.1108 584.62 95.11 584.205C95.4597 584.06 95.9177 583.88 96.4511 583.721C96.5165 583.341 96.583 582.849 96.6368 582.222C96.9676 578.37 96.6507 571.998 95.6249 562.377C93.7042 547.272 95.9347 527.969 100.662 509.291C105.405 490.548 112.825 471.794 121.756 457.812C123.702 454.706 125.26 449.16 125.98 441.543C126.683 434.094 126.525 425.331 125.561 416.352C123.599 398.092 118.462 380.361 111.702 371.236L111.692 371.222L111.682 371.208C95.2 348.694 85.6336 329.84 83.136 309.189C80.6466 288.606 85.2837 267.059 95.4365 239.384L95.4415 239.37L95.4466 239.357C101.474 223.172 106.49 212.38 116.149 199.846C125.611 187.568 139.475 173.695 162.833 151.085L162.836 151.082C177.018 137.376 188.509 126.659 198.016 118.677C207.453 110.754 215.291 105.214 222.148 102.186C229.199 99.0726 235.774 98.3828 242.056 101.017C247.942 103.485 252.579 108.498 256.837 114.291L256.892 114.366L256.945 114.443C259.675 118.409 261.975 120.651 264.118 121.847C266.072 122.937 268.341 123.408 271.652 122.874C275.155 122.309 279.699 120.63 285.856 117.379C291.964 114.155 299.321 109.569 308.402 103.483C312.239 100.871 315.813 98.4314 319.142 96.1586C328.714 89.6243 336.272 84.465 342.31 80.5133C350.337 75.2598 356.219 71.7693 360.944 70.0332C363.401 69.1304 365.812 68.5956 368.254 68.6339C370.763 68.6733 372.948 69.311 374.935 70.2744C376.817 71.1866 378.543 72.4071 380.115 73.5818C380.804 74.0966 381.438 74.5826 382.08 75.0747C383.074 75.8361 384.085 76.6115 385.346 77.5286L385.395 77.5646L385.444 77.6014L396.917 86.3137L428.622 70.7363L428.647 70.7238L428.673 70.7114C448.685 61.114 495.927 44.3174 533.11 33.3374L533.143 33.3276L533.176 33.3181C590.247 17.181 606.852 14.1777 630.929 17.5018L630.941 17.5035L630.954 17.5054C647.441 19.8527 659.237 22.4218 667.513 26.4641C676.342 30.7767 681.208 36.7866 683.756 45.1703C684.734 48.3884 685.553 49.8162 686.065 50.381C686.112 50.4324 686.114 50.4653 686.132 50.4829C686.158 50.5084 686.216 50.5013 686.488 50.4707C687.487 50.3584 689.445 49.7076 692.892 47.6381C696.225 45.6377 700.414 42.6472 705.773 38.5134L705.791 38.4995L705.81 38.4857C716.698 30.2179 737.356 19.5248 752.214 14.1522ZM745.566 1002.51C745.566 1002.51 745.569 1002.51 745.577 1002.53C745.57 1002.51 745.566 1002.51 745.566 1002.51ZM545.375 1067.62C545.372 1067.62 545.358 1067.65 545.339 1067.71C545.367 1067.66 545.377 1067.63 545.375 1067.62Z" stroke="black" stroke-width="12"/>
</svg>
