<svg width="600" height="730" viewBox="0 0 600 730" fill="none" xmlns="http://www.w3.org/2000/svg">
<mask id="path-1-outside-1_585_885" maskUnits="userSpaceOnUse" x="0.498047" y="-0.273438" width="600" height="730" fill="black">
<rect fill="white" x="0.498047" y="-0.273438" width="600" height="730"/>
<path d="M235 36.0002C226.631 32.0716 218.789 27.755 210.961 22.8557C199.317 15.5586 188.363 10.7243 174.309 13.5393C169.501 14.5023 162.501 23 162.001 23.5C157.501 28.5 155.625 33.0275 151.75 38.3752C142.008 51.8202 65.5 121 60.1877 130.5C58.7851 133.009 13.2587 218.777 12.7004 221.883C12.508 222.952 12.5037 224.252 12.5 225.354L12.4995 225.5C12.4301 239.075 14.9146 250.993 19.2453 263.798L20.0002 266C23.7461 276.94 27.9602 287.507 33.0119 297.91C34.6819 301.331 36.3025 304.773 37.9045 308.226C39.2605 311.155 40.6225 314.081 42.0002 317C43.0011 319 44.0013 321 45.0002 323C46.262 325.963 47.4299 328.955 48.9728 331.783C51.3263 336.074 52.5845 339.905 53.2648 344.745C53.4703 346.387 53.692 348.027 53.9269 349.666L54.301 352.219C55.6889 361.883 58.008 371.228 60.5617 380.64L61.5002 384.063L62.3996 387.384L63.2814 390.535C64.1156 393.543 64.9632 395.937 66.5363 398.641C68.1443 401.046 68.1443 401.046 69.1408 404.207C71.6992 412.522 74.8015 420.391 78.3595 428.324C80.0862 432.168 81.7018 436.047 83.2228 439.977L84.0001 442C85.8892 446.534 86.2442 450.27 86.1212 455.117L86.0001 458C85.704 468.533 84.6758 480.336 80.0353 490.012L79.0001 492C75.7016 500.586 71.5432 509.641 75.0627 518.75C80.6513 525.24 85.5276 526.643 93.8576 527.506L97.4376 527.813C100.866 528.155 104.293 528.496 107.724 528.804L110 529C113.956 541.524 118.662 553.653 124.063 565.625C125.509 568.814 126.823 572.044 128.108 575.302C130.305 580.881 132.584 586.377 135.125 591.813C137.291 596.421 139.274 601.057 141.141 605.793C142.616 609.581 143.971 613.34 146.121 616.809C149.322 621.445 152.384 626.476 158.16 627.633L161 628C158.506 634.682 155.887 640.824 157 648C158.741 651.083 160.88 653.37 164 655.125C166.167 655.979 166.167 655.979 168.375 657.813L171 660C175.576 663.254 178.172 666.575 181.25 671.313C182.45 673.241 183.688 675.147 185 677C187.833 681 202 696.031 204 698L205.504 699.481L205.781 699.711C208.58 702.031 211.35 704.327 213.879 706.946C216.699 709.961 230.5 718.5 236 717C240.5 715 247.987 706.775 248.473 706.172L250.063 703.75C251.638 701.393 260.783 682 264.379 677.739C267.46 674.087 270.823 673.452 275.312 672.688C277.21 672.471 279 673.5 281 672C283.411 669.589 283.411 669.589 286.027 660.387C292.107 635.678 304.861 619.499 324.598 603.867L327 602C330.008 599.574 333.039 597.241 336.188 595C338.504 593.37 345.5 585.313 349.5 584.125C352 583.5 352.87 584.5 353.562 585.313L355 587C356.278 588.5 361.232 597.861 361.56 599.405L362.062 601.723C362.888 605.597 363.957 609.299 365.285 613.031C365.79 614.421 366.275 615.818 366.746 617.219L367.5 619.5C368.002 620.999 368.502 622.499 369 624C375.565 644.665 386.612 662.237 402.203 677.309L405 680C408.5 683.368 422.708 693.442 427 695C433.5 697 441.817 694.711 449.359 690.535C456.054 686.643 461.251 685.579 469 686C471.98 693.992 475.132 701.678 481 708C490.476 715.653 507.985 717.747 519.828 717.196L522 717C528.578 716.423 535.036 714.878 541.02 712.043C546.394 708.73 548.919 703.841 551 698C551.806 693.247 551.19 690.906 548.5 687.063L546 684C546.367 683.393 565.674 665.5 568 661.75C576.206 648.519 577.411 636.031 576.509 620.792C576.386 618.829 576.269 616.866 576.157 614.903L576 612C575.613 605.676 575.452 600.735 578.693 595.156C579.462 593.934 580.206 592.695 580.93 591.446L582.023 589.524C585.664 583.191 589.166 574.779 587.375 567.438C586.658 564.5 565.711 544.902 564 543C563.847 539.249 563.847 539.249 564.551 536.66C566.042 531.574 567.362 526.491 568.5 521.313L568.541 521.119C569.122 518.4 569.684 515.764 570.751 513.186C572.748 508.482 573.365 504.493 573.361 499.383L573.312 496.75C573.336 490.171 573.579 485.675 568.793 480.711L566.188 478.375C563.347 476.804 502.159 433.867 500 432C499.771 428.219 499.771 428.219 500.84 425.703C503.219 420.385 504.902 415.857 505 410C505.083 405 481.482 388.679 479.816 386.332C479.009 380.34 479.009 380.34 480.375 374.266L481 371C481.67 366.615 482.217 363.745 485.562 360.563C493.005 355.099 498.968 348.477 503.754 340.586C505.978 335.971 507.5 332.5 504 328C497.969 321.806 489.659 318.557 481.25 316.938C477.389 316.277 473.599 315.467 469.796 314.538L467.625 314C464.267 313.191 460.965 312.432 457.801 311.016C449.509 306.339 440.834 303.642 431.701 301.144C426.724 299.785 421.812 298.332 416.929 296.661L415 296C408.93 294.095 405.712 292.108 402.062 286.75C401.08 285.143 400.069 283.552 399 282C392.96 270.544 367.148 191.986 363.838 179.433C362.906 176.702 361.992 173.972 361.152 171.211C358.591 162.394 355.375 153.882 351.938 145.375C350.272 141.266 348.666 137.162 347.312 132.938C346.914 131.613 346.473 130.3 346 129C343.918 124.855 342.011 120.714 340.247 116.427C336.968 108.446 333.477 100.659 329.543 92.9807C328.577 91.1138 327.619 89.2421 326.676 87.3635C325.786 85.5747 320.893 77.7872 320 76.0002C310.81 62.1049 296.992 54.7934 280.938 50.9377C278.732 50.4446 276.63 49.8786 274.48 49.1721C269.899 47.5926 265.329 46.0651 260.649 44.8049C252.874 42.7283 245.298 40.6387 237.918 37.3713L235 36.0002Z"/>
</mask>
<path d="M235 36.0002C226.631 32.0716 218.789 27.755 210.961 22.8557C199.317 15.5586 188.363 10.7243 174.309 13.5393C169.501 14.5023 162.501 23 162.001 23.5C157.501 28.5 155.625 33.0275 151.75 38.3752C142.008 51.8202 65.5 121 60.1877 130.5C58.7851 133.009 13.2587 218.777 12.7004 221.883C12.508 222.952 12.5037 224.252 12.5 225.354L12.4995 225.5C12.4301 239.075 14.9146 250.993 19.2453 263.798L20.0002 266C23.7461 276.94 27.9602 287.507 33.0119 297.91C34.6819 301.331 36.3025 304.773 37.9045 308.226C39.2605 311.155 40.6225 314.081 42.0002 317C43.0011 319 44.0013 321 45.0002 323C46.262 325.963 47.4299 328.955 48.9728 331.783C51.3263 336.074 52.5845 339.905 53.2648 344.745C53.4703 346.387 53.692 348.027 53.9269 349.666L54.301 352.219C55.6889 361.883 58.008 371.228 60.5617 380.64L61.5002 384.063L62.3996 387.384L63.2814 390.535C64.1156 393.543 64.9632 395.937 66.5363 398.641C68.1443 401.046 68.1443 401.046 69.1408 404.207C71.6992 412.522 74.8015 420.391 78.3595 428.324C80.0862 432.168 81.7018 436.047 83.2228 439.977L84.0001 442C85.8892 446.534 86.2442 450.27 86.1212 455.117L86.0001 458C85.704 468.533 84.6758 480.336 80.0353 490.012L79.0001 492C75.7016 500.586 71.5432 509.641 75.0627 518.75C80.6513 525.24 85.5276 526.643 93.8576 527.506L97.4376 527.813C100.866 528.155 104.293 528.496 107.724 528.804L110 529C113.956 541.524 118.662 553.653 124.063 565.625C125.509 568.814 126.823 572.044 128.108 575.302C130.305 580.881 132.584 586.377 135.125 591.813C137.291 596.421 139.274 601.057 141.141 605.793C142.616 609.581 143.971 613.34 146.121 616.809C149.322 621.445 152.384 626.476 158.16 627.633L161 628C158.506 634.682 155.887 640.824 157 648C158.741 651.083 160.88 653.37 164 655.125C166.167 655.979 166.167 655.979 168.375 657.813L171 660C175.576 663.254 178.172 666.575 181.25 671.313C182.45 673.241 183.688 675.147 185 677C187.833 681 202 696.031 204 698L205.504 699.481L205.781 699.711C208.58 702.031 211.35 704.327 213.879 706.946C216.699 709.961 230.5 718.5 236 717C240.5 715 247.987 706.775 248.473 706.172L250.063 703.75C251.638 701.393 260.783 682 264.379 677.739C267.46 674.087 270.823 673.452 275.312 672.688C277.21 672.471 279 673.5 281 672C283.411 669.589 283.411 669.589 286.027 660.387C292.107 635.678 304.861 619.499 324.598 603.867L327 602C330.008 599.574 333.039 597.241 336.188 595C338.504 593.37 345.5 585.313 349.5 584.125C352 583.5 352.87 584.5 353.562 585.313L355 587C356.278 588.5 361.232 597.861 361.56 599.405L362.062 601.723C362.888 605.597 363.957 609.299 365.285 613.031C365.79 614.421 366.275 615.818 366.746 617.219L367.5 619.5C368.002 620.999 368.502 622.499 369 624C375.565 644.665 386.612 662.237 402.203 677.309L405 680C408.5 683.368 422.708 693.442 427 695C433.5 697 441.817 694.711 449.359 690.535C456.054 686.643 461.251 685.579 469 686C471.98 693.992 475.132 701.678 481 708C490.476 715.653 507.985 717.747 519.828 717.196L522 717C528.578 716.423 535.036 714.878 541.02 712.043C546.394 708.73 548.919 703.841 551 698C551.806 693.247 551.19 690.906 548.5 687.063L546 684C546.367 683.393 565.674 665.5 568 661.75C576.206 648.519 577.411 636.031 576.509 620.792C576.386 618.829 576.269 616.866 576.157 614.903L576 612C575.613 605.676 575.452 600.735 578.693 595.156C579.462 593.934 580.206 592.695 580.93 591.446L582.023 589.524C585.664 583.191 589.166 574.779 587.375 567.438C586.658 564.5 565.711 544.902 564 543C563.847 539.249 563.847 539.249 564.551 536.66C566.042 531.574 567.362 526.491 568.5 521.313L568.541 521.119C569.122 518.4 569.684 515.764 570.751 513.186C572.748 508.482 573.365 504.493 573.361 499.383L573.312 496.75C573.336 490.171 573.579 485.675 568.793 480.711L566.188 478.375C563.347 476.804 502.159 433.867 500 432C499.771 428.219 499.771 428.219 500.84 425.703C503.219 420.385 504.902 415.857 505 410C505.083 405 481.482 388.679 479.816 386.332C479.009 380.34 479.009 380.34 480.375 374.266L481 371C481.67 366.615 482.217 363.745 485.562 360.563C493.005 355.099 498.968 348.477 503.754 340.586C505.978 335.971 507.5 332.5 504 328C497.969 321.806 489.659 318.557 481.25 316.938C477.389 316.277 473.599 315.467 469.796 314.538L467.625 314C464.267 313.191 460.965 312.432 457.801 311.016C449.509 306.339 440.834 303.642 431.701 301.144C426.724 299.785 421.812 298.332 416.929 296.661L415 296C408.93 294.095 405.712 292.108 402.062 286.75C401.08 285.143 400.069 283.552 399 282C392.96 270.544 367.148 191.986 363.838 179.433C362.906 176.702 361.992 173.972 361.152 171.211C358.591 162.394 355.375 153.882 351.938 145.375C350.272 141.266 348.666 137.162 347.312 132.938C346.914 131.613 346.473 130.3 346 129C343.918 124.855 342.011 120.714 340.247 116.427C336.968 108.446 333.477 100.659 329.543 92.9807C328.577 91.1138 327.619 89.2421 326.676 87.3635C325.786 85.5747 320.893 77.7872 320 76.0002C310.81 62.1049 296.992 54.7934 280.938 50.9377C278.732 50.4446 276.63 49.8786 274.48 49.1721C269.899 47.5926 265.329 46.0651 260.649 44.8049C252.874 42.7283 245.298 40.6387 237.918 37.3713L235 36.0002Z" stroke="#cbc4c8" stroke-width="16" mask="url(#path-1-outside-1_585_885)"/>
</svg>
